<mxfile host="app.diagrams.net" modified="2024-06-08T02:44:12.468Z" agent="Mozilla/5.0 (iPhone; CPU iPhone OS 17_5_1 like Mac OS X) AppleWebKit/605.1.15 (KHTML, like Gecko) Version/17.5 Mobile/15E148 Safari/604.1" version="24.5.2" etag="BW8iqRCiDwXYCYEI3WVc" type="github">
  <diagram name="ページ1" id="75IkqCLWBx_sNGnAHpKE">
    <mxGraphModel>
      <root>
        <mxCell id="0" />
        <mxCell id="1" parent="0" />
      </root>
    </mxGraphModel>
  </diagram>
</mxfile>
